<svg>
    <symbol>
	<svg id="burger-menu" xmlns="http://www.w3.org/2000/svg" xmlns:xlink="http://www.w3.org/1999/xlink" x="0px" y="0px"
	 viewBox="0 0 124 124" style="enable-background:new 0 0 124 124;" xml:space="preserve">
<g>
	<path d="M112,6H12C5.4,6,0,11.4,0,18s5.4,12,12,12h100c6.6,0,12-5.4,12-12S118.6,6,112,6z"/>
	<path d="M112,50H12C5.4,50,0,55.4,0,62c0,6.6,5.4,12,12,12h100c6.6,0,12-5.4,12-12C124,55.4,118.6,50,112,50z"/>
	<path d="M112,94H12c-6.6,0-12,5.4-12,12s5.4,12,12,12h100c6.6,0,12-5.4,12-12S118.6,94,112,94z"/>
</g>
    </symbol>

<symbol>
<svg id="star" width="24" height="22" viewBox="0 0 24 22" fill="none" xmlns="http://www.w3.org/2000/svg"> 
<path d="M12 0L14.6942 8.2918H23.4127L16.3593 13.4164L19.0534 21.7082L12 16.5836L4.94658 21.7082L7.64074 13.4164L0.587322 8.2918H9.30583L12 0Z" 
fill="#06B25F"/>
</symbol>

<symbol>
<svg id="half-star" width="12" height="22" viewBox="0 0 12 22" fill="none" xmlns="http://www.w3.org/2000/svg">
<path d="M12 0L11.9999 8.2918L12 16.5836L4.94654 21.7082L7.6407 13.4164L0.58728 8.2918H9.30579L12 0Z" 
fill="#06B25F"/>
</symbol>

<symbol>
<svg id="location"  width="14" height="20" viewBox="0 0 14 20" fill="none" xmlns="http://www.w3.org/2000/svg">
<path d="M7 0C3.13 0 0 3.13 0 7C0 12.25 7 20 7 20C7 20 14 12.25 14 7C14 3.13 10.87 0 7 0ZM7 9.5C5.62 9.5 4.5 8.38 4.5 7C4.5 5.62 5.62 
4.5 7 4.5C8.38 4.5 9.5 5.62 9.5 7C9.5 8.38 8.38 9.5 7 9.5Z" 
fill="#276ED8"/>
	</symbol>

<symbol>
<svg id="phone" width="18" height="18" viewBox="0 0 18 18" fill="none" xmlns="http://www.w3.org/2000/svg">
<path d="M3.62 7.79C5.06 10.62 7.38 12.93 10.21 14.38L12.41 12.18C12.68 11.91 13.08 11.82 13.43 11.94C14.55 12.31 15.76 12.51 17 12.51C17.55 12.51 18 12.96 18 13.51V17C18 17.55 17.55 18 17 18C7.61 18 0 
10.39 0 1C0 0.45 0.45 0 1 0H4.5C5.05 0 5.5 0.45 5.5 1C5.5 2.25 5.7 3.45 6.07 4.57C6.18 4.92 6.1 5.31 5.82 5.59L3.62 7.79Z" 
fill="#276ED8"/>>
	</symbol>

<symbol>
<svg id="whatsapp" width="20" height="20" viewBox="0 0 20 20" fill="none" xmlns="http://www.w3.org/2000/svg">
<path d="M10.0025 0H9.9975C4.48375 0 0 4.485 0 10C0 12.1875 0.705 14.215 1.90375 15.8612L0.6575 19.5763L4.50125 18.3475C6.0825 
19.395 7.96875 20 10.0025 20C15.5162 20 20 15.5138 20 10C20 4.48625 15.5162 0 10.0025 0ZM15.8212 14.1213C15.58 14.8025 14.6225 15.3675 13.8587 15.5325C13.3363 15.6437 12.6537 15.7325 10.3562 14.78C7.4175 13.5625 5.525 10.5763 5.3775 10.3825C5.23625 10.1887 4.19 8.80125 4.19 7.36625C4.19 5.93125 4.91875 5.2325 5.2125 4.9325C5.45375 4.68625 5.8525 4.57375 6.235 4.57375C6.35875 4.57375 6.47 4.58 6.57 4.585C6.86375 4.5975 7.01125 4.615 7.205 5.07875C7.44625 5.66 8.03375 7.095 8.10375 7.2425C8.175 7.39 8.24625 7.59 8.14625 7.78375C8.0525 7.98375 7.97 8.0725 7.8225 8.2425C7.675 8.4125 7.535 8.5425 7.3875 8.725C7.2525 8.88375 7.1 9.05375 7.27 9.3475C7.44 9.635 8.0275 10.5937 8.8925 11.3637C10.0087 12.3575 10.9137 12.675 11.2375 12.81C11.4787 12.91 11.7662 12.8863 11.9425 12.6988C12.1663 12.4575 12.4425 12.0575 12.7238 11.6638C12.9237 11.3813 13.1763 11.3462 13.4412 11.4462C13.7113 11.54 15.14 12.2462 15.4338 12.3925C15.7275 12.54 15.9212 12.61 15.9925 12.7338C16.0625 12.8575 16.0625 13.4388 15.8212 14.1213Z" 
fill="#276ED8"/>>
	</symbol>

<symbol>
<svg id="skype" width="20" height="20" viewBox="0 0 20 20" fill="none" xmlns="http://www.w3.org/2000/svg">
<path d="M19.4049 12.1108C20.8518 5.6098 15.1558 -0.296061 8.46658 0.837664C4.83519 -1.41563 0 1.13067 0 5.45081C0 
6.45551 0.277224 7.39612 0.759245 8.20687C-0.585251 14.7229 5.15737 20.5438 11.8407 19.3327C16.5652 21.8307 21.7858 16.8488 19.4049 
12.1108ZM13.0462 16.0314C11.2913 16.7531 8.40331 16.7573 6.65588 15.8425C4.16419 14.5139 3.7213 11.5231 5.87083 11.5231C7.49088 11.5231 6.97806 13.4119 8.61393 14.1818C9.36485 14.5289 10.9791 14.5647 11.9173 13.9321C12.8439 13.312 12.759 12.3364 12.2553 11.8703C10.9208 10.6383 7.1021 11.1278 5.35634 8.97101C4.59793 8.0354 4.45474 6.38476 5.38714 5.18777C7.01219 3.09679 11.7808 2.96943 13.8312 4.54849C15.7244 6.01351 15.2132 7.95799 13.6856 7.95799C11.8482 7.95799 12.8139 5.55402 9.84771 5.55402C7.69735 5.55402 6.85152 7.08314 8.36585 7.8273C10.4188 8.84699 15.6503 8.50654 15.6503 12.4912C15.6461 14.1494 14.6296 15.3855 13.0462 16.0314Z" 
fill="#276ED8"/>>
	</symbol>

<symbol>
<svg id="mail" width="20" height="16" viewBox="0 0 20 16" fill="none" xmlns="http://www.w3.org/2000/svg">
<path d="M18 0H2C0.9 0 0.00999999 0.9 0.00999999 2L0 14C0 15.1 0.9 16 2 16H18C19.1 16 20 15.1 20 14V2C20 0.9 19.1 0 18 0ZM18 4L10 9L2 4V2L10 7L18 2V4Z" 
fill="#276ED8"/>
	</symbol>

<symbol>
<svg id="facebook" width="20" height="20" viewBox="0 0 20 20" fill="none" xmlns="http://www.w3.org/2000/svg">
<path d="M20 10C20 4.48 15.52 0 10 0C4.48 0 0 4.48 0 10C0 14.84 3.44 18.87 8 19.8V13H6V10H8V7.5C8 5.57 9.57 4 11.5 
4H14V7H12C11.45 7 11 7.45 11 8V10H14V13H11V19.95C16.05 19.45 20 15.19 20 10Z" 
fill="#276ED8"/>
	</symbol>

<symbol>
<svg id="name-icon" width="12" height="12" xmlns="http://www.w3.org/2000/svg">
<path d="M6 6a3 3 0 1 0 0-6 3 3 0 1 0 0 6zm0 1.5c-2.002 0-6 1.005-6 3v.75c0 .412.338.75.75.75h10.5c.412 0 .75-.338.75-.75v-.75c0-1.995-3.998-3-6-3z"/></svg>
</symbol>
	
</svg>